<svg width="161" height="25" viewBox="0 0 161 25" fill="none" xmlns="http://www.w3.org/2000/svg">
<path d="M6.27273 19.9091V4.90909H8.81818V19.9091H6.27273ZM0.0454547 13.6818V11.1364H15.0455V13.6818H0.0454547ZM30.8665 24H27.9119L36.4574 0.727272H39.3665L47.9119 24H44.9574L38.0028 4.40909H37.821L30.8665 24ZM31.9574 14.9091H43.8665V17.4091H31.9574V14.9091ZM57.7642 24.3636C56.3097 24.3636 55.0256 23.9962 53.9119 23.2614C52.7983 22.5189 51.9271 21.4735 51.2983 20.125C50.6695 18.7689 50.3551 17.1667 50.3551 15.3182C50.3551 13.4848 50.6695 11.8939 51.2983 10.5455C51.9271 9.19697 52.8021 8.1553 53.9233 7.42045C55.0445 6.68561 56.34 6.31818 57.8097 6.31818C58.946 6.31818 59.8438 6.50758 60.5028 6.88636C61.1695 7.25758 61.6771 7.68182 62.0256 8.15909C62.3816 8.62879 62.6581 9.01515 62.8551 9.31818H63.0824V0.727272H65.7642V24H63.1733V21.3182H62.8551C62.6581 21.6364 62.3778 22.0379 62.0142 22.5227C61.6506 23 61.1316 23.428 60.4574 23.8068C59.7831 24.178 58.8854 24.3636 57.7642 24.3636ZM58.1278 21.9545C59.2036 21.9545 60.1127 21.6742 60.8551 21.1136C61.5975 20.5455 62.1619 19.7614 62.5483 18.7614C62.9347 17.7538 63.1278 16.5909 63.1278 15.2727C63.1278 13.9697 62.9384 12.8295 62.5597 11.8523C62.1809 10.8674 61.6203 10.1023 60.8778 9.55682C60.1354 9.00379 59.2188 8.72727 58.1278 8.72727C56.9915 8.72727 56.0445 9.01894 55.2869 9.60227C54.5369 10.178 53.9725 10.9621 53.5938 11.9545C53.2225 12.9394 53.0369 14.0455 53.0369 15.2727C53.0369 16.5152 53.2263 17.6439 53.6051 18.6591C53.9915 19.6667 54.5597 20.4697 55.3097 21.0682C56.0672 21.6591 57.0066 21.9545 58.1278 21.9545ZM77.6392 24.3636C76.1847 24.3636 74.9006 23.9962 73.7869 23.2614C72.6733 22.5189 71.8021 21.4735 71.1733 20.125C70.5445 18.7689 70.2301 17.1667 70.2301 15.3182C70.2301 13.4848 70.5445 11.8939 71.1733 10.5455C71.8021 9.19697 72.6771 8.1553 73.7983 7.42045C74.9195 6.68561 76.215 6.31818 77.6847 6.31818C78.821 6.31818 79.7188 6.50758 80.3778 6.88636C81.0445 7.25758 81.5521 7.68182 81.9006 8.15909C82.2566 8.62879 82.5331 9.01515 82.7301 9.31818H82.9574V0.727272H85.6392V24H83.0483V21.3182H82.7301C82.5331 21.6364 82.2528 22.0379 81.8892 22.5227C81.5256 23 81.0066 23.428 80.3324 23.8068C79.6581 24.178 78.7604 24.3636 77.6392 24.3636ZM78.0028 21.9545C79.0786 21.9545 79.9877 21.6742 80.7301 21.1136C81.4725 20.5455 82.0369 19.7614 82.4233 18.7614C82.8097 17.7538 83.0028 16.5909 83.0028 15.2727C83.0028 13.9697 82.8134 12.8295 82.4347 11.8523C82.0559 10.8674 81.4953 10.1023 80.7528 9.55682C80.0104 9.00379 79.0938 8.72727 78.0028 8.72727C76.8665 8.72727 75.9195 9.01894 75.1619 9.60227C74.4119 10.178 73.8475 10.9621 73.4688 11.9545C73.0975 12.9394 72.9119 14.0455 72.9119 15.2727C72.9119 16.5152 73.1013 17.6439 73.4801 18.6591C73.8665 19.6667 74.4347 20.4697 75.1847 21.0682C75.9422 21.6591 76.8816 21.9545 78.0028 21.9545ZM107.514 6.54545V8.81818H98.4688V6.54545H107.514ZM101.105 2.36364H103.787V19C103.787 19.7576 103.897 20.3258 104.116 20.7045C104.344 21.0758 104.632 21.3258 104.98 21.4545C105.336 21.5758 105.711 21.6364 106.105 21.6364C106.401 21.6364 106.643 21.6212 106.832 21.5909C107.022 21.553 107.173 21.5227 107.287 21.5L107.832 23.9091C107.651 23.9773 107.397 24.0455 107.071 24.1136C106.745 24.1894 106.332 24.2273 105.832 24.2273C105.075 24.2273 104.332 24.0644 103.605 23.7386C102.885 23.4129 102.287 22.9167 101.81 22.25C101.34 21.5833 101.105 20.7424 101.105 19.7273V2.36364ZM116.685 24.4091C115.579 24.4091 114.575 24.2008 113.673 23.7841C112.772 23.3598 112.056 22.75 111.526 21.9545C110.995 21.1515 110.73 20.1818 110.73 19.0455C110.73 18.0455 110.927 17.2348 111.321 16.6136C111.715 15.9848 112.241 15.4924 112.901 15.1364C113.56 14.7803 114.287 14.5152 115.082 14.3409C115.885 14.1591 116.692 14.0152 117.503 13.9091C118.563 13.7727 119.423 13.6705 120.082 13.6023C120.749 13.5265 121.234 13.4015 121.537 13.2273C121.848 13.053 122.003 12.75 122.003 12.3182V12.2273C122.003 11.1061 121.696 10.2348 121.082 9.61364C120.476 8.99242 119.556 8.68182 118.321 8.68182C117.041 8.68182 116.037 8.96212 115.31 9.52273C114.582 10.0833 114.071 10.6818 113.776 11.3182L111.23 10.4091C111.685 9.34848 112.291 8.52273 113.048 7.93182C113.813 7.33333 114.647 6.91667 115.548 6.68182C116.457 6.43939 117.351 6.31818 118.23 6.31818C118.791 6.31818 119.435 6.38636 120.162 6.52273C120.897 6.65151 121.605 6.92045 122.287 7.32954C122.976 7.73864 123.548 8.35606 124.003 9.18182C124.457 10.0076 124.685 11.1136 124.685 12.5V24H122.003V21.6364H121.866C121.685 22.0152 121.382 22.4205 120.957 22.8523C120.533 23.2841 119.969 23.6515 119.264 23.9545C118.56 24.2576 117.7 24.4091 116.685 24.4091ZM117.094 22C118.154 22 119.048 21.7917 119.776 21.375C120.51 20.9583 121.063 20.4205 121.435 19.7614C121.813 19.1023 122.003 18.4091 122.003 17.6818V15.2273C121.889 15.3636 121.639 15.4886 121.253 15.6023C120.874 15.7083 120.435 15.803 119.935 15.8864C119.442 15.9621 118.961 16.0303 118.491 16.0909C118.029 16.1439 117.654 16.1894 117.366 16.2273C116.67 16.3182 116.018 16.4659 115.412 16.6705C114.813 16.8674 114.329 17.1667 113.957 17.5682C113.594 17.9621 113.412 18.5 113.412 19.1818C113.412 20.1136 113.757 20.8182 114.446 21.2955C115.143 21.7652 116.026 22 117.094 22ZM141.943 10.4545L139.534 11.1364C139.383 10.7348 139.159 10.3447 138.864 9.96591C138.576 9.57955 138.182 9.26136 137.682 9.01136C137.182 8.76136 136.542 8.63636 135.761 8.63636C134.693 8.63636 133.803 8.88258 133.091 9.375C132.386 9.85985 132.034 10.4773 132.034 11.2273C132.034 11.8939 132.277 12.4205 132.761 12.8068C133.246 13.1932 134.004 13.5152 135.034 13.7727L137.625 14.4091C139.186 14.7879 140.348 15.3674 141.114 16.1477C141.879 16.9205 142.261 17.9167 142.261 19.1364C142.261 20.1364 141.973 21.0303 141.398 21.8182C140.83 22.6061 140.034 23.2273 139.011 23.6818C137.989 24.1364 136.799 24.3636 135.443 24.3636C133.663 24.3636 132.189 23.9773 131.023 23.2045C129.856 22.4318 129.117 21.303 128.807 19.8182L131.352 19.1818C131.595 20.1212 132.053 20.8258 132.727 21.2955C133.409 21.7652 134.299 22 135.398 22C136.648 22 137.64 21.7348 138.375 21.2045C139.117 20.6667 139.489 20.0227 139.489 19.2727C139.489 18.6667 139.277 18.1591 138.852 17.75C138.428 17.3333 137.777 17.0227 136.898 16.8182L133.989 16.1364C132.39 15.7576 131.216 15.1705 130.466 14.375C129.723 13.572 129.352 12.5682 129.352 11.3636C129.352 10.3788 129.629 9.50758 130.182 8.75C130.742 7.99242 131.504 7.39773 132.466 6.96591C133.436 6.53409 134.534 6.31818 135.761 6.31818C137.489 6.31818 138.845 6.69697 139.83 7.45454C140.822 8.21212 141.527 9.21212 141.943 10.4545ZM148.798 17.6364L148.753 14.3182H149.298L156.935 6.54545H160.253L152.116 14.7727H151.889L148.798 17.6364ZM146.298 24V0.727272H148.98V24H146.298ZM157.389 24L150.571 15.3636L152.48 13.5L160.798 24H157.389Z" fill="black"/>
</svg>
